# xmcd
#
# Track frame offsets:
# 150
# 900
# 1650
# 2400
# 3150
# 3900
# 4650
# 5400
# 6150
# 6900
# 7650
# 8400
# 9150
# 9900
# 313920
#
# Disc length: 4440 seconds
#
#
# Revision: 0
# Processed by: cddbd v1.4PL0 Copyright (c) Steve Scherf et al.
# Submitted via: FreeRIP 2.30 
#
DISCID=6511560f
DTITLE=Michel JONASZ - L'essentiel
DYEAR=2003
DGENRE=Jazz+Funk
TTITLE0=
TTITLE1=La boîte de jazz
TTITLE2=Tristesse
TTITLE3=Lucille
TTITLE4=La FM qui s'est spécialisée funky
TTITLE5=Mister swing
TTITLE6=Soul music airlines
TTITLE7=Je t'aime
TTITLE8=Rock à gogo
TTITLE9=Extra lucide
TTITLE10=Ne garde rien
TTITLE11=Ray Charles
TTITLE12=Big Boss
TTITLE13=L'air que l'on respire
TTITLE14=Poussy
EXTD=
EXTT0=
EXTT1=
EXTT2=
EXTT3=
EXTT4=
EXTT5=
EXTT6=
EXTT7=
EXTT8=
EXTT9=
EXTT10=
EXTT11=
EXTT12=
EXTT13=
EXTT14=
PLAYORDER=
